<?xml version="1.0" standalone="no"?><!DOCTYPE svg PUBLIC "-//W3C//DTD SVG 20010904//EN"
    "http://www.w3.org/TR/2001/REC-SVG-20010904/DTD/svg10.dtd">
<svg version="1.0" xmlns="http://www.w3.org/2000/svg" width="337.000000pt" height="467.000000pt"
    viewBox="0 0 337.000000 467.000000" preserveAspectRatio="xMidYMid meet">

    <g transform="translate(0.000000,467.000000) scale(0.100000,-0.100000)" fill="#FFFFFF"
        stroke="none">
        <path d="M1025 4051 c-282 -7 -291 -8 -346 -68 -64 -68 -59 64 -59 -1670 l0
-1578 30 -52 c21 -36 44 -61 77 -79 l46 -28 621 0 c342 -1 740 1 886 4 298 6
320 10 366 80 22 33 26 53 33 176 4 76 7 796 7 1599 -1 1610 4 1495 -62 1557
-62 57 -47 56 -720 61 -340 2 -736 2 -879 -2z m1510 -156 l25 -24 0 -1374 0
-1374 -562 -7 c-429 -5 -564 -9 -570 -19 -5 -6 -7 -23 -6 -37 3 -24 6 -25 103
-31 55 -4 311 -7 568 -8 l469 -1 -4 -135 c-4 -187 11 -176 -250 -186 -112 -4
-230 -8 -263 -8 l-59 -1 44 -48 c35 -37 32 -35 -10 7 l-54 54 -589 5 -588 5
-19 25 c-18 22 -20 41 -20 153 l0 129 138 1 c75 0 160 4 187 7 44 6 50 10 53
32 1 14 -1 30 -5 37 -5 7 -70 14 -189 18 l-181 8 -6 741 c-9 942 -9 1492 0
1781 6 221 7 230 29 252 l23 23 856 0 856 0 24 -25z m-1830 -1925 c21 -22 37
-40 34 -40 -3 0 -23 18 -44 40 -21 22 -37 40 -34 40 3 0 23 -18 44 -40z m1915
-865 c13 -14 21 -25 18 -25 -2 0 -15 11 -28 25 -13 14 -21 25 -18 25 2 0 15
-11 28 -25z" />
        <path d="M1665 3411 c-84 -21 -167 -97 -190 -174 -19 -64 -19 -90 1 -158 14
-47 31 -69 138 -177 66 -68 155 -155 197 -193 l76 -69 117 106 c116 105 140
140 116 169 -24 29 -52 15 -141 -72 l-89 -87 -33 29 c-17 16 -90 86 -160 155
-107 105 -130 132 -142 172 -15 53 -9 87 25 143 40 65 152 95 208 57 15 -10
43 -28 63 -40 l36 -22 54 35 c45 28 64 35 109 35 104 0 162 -58 164 -163 0
-43 -6 -63 -37 -113 -20 -34 -37 -64 -37 -67 0 -11 32 -37 45 -37 22 0 75 60
101 115 72 150 -29 332 -199 358 -42 6 -135 -14 -171 -39 -22 -14 -27 -14 -63
4 -29 15 -153 47 -157 41 -1 -1 -14 -4 -31 -8z" />
        <path d="M1155 2526 c-48 -21 -94 -65 -125 -120 -41 -70 -42 -158 -4 -234 31
-62 56 -79 90 -63 30 13 30 16 -6 93 -35 74 -37 105 -10 158 27 53 72 83 135
88 51 4 91 -10 151 -53 19 -14 25 -12 78 20 97 58 190 44 248 -38 21 -30 27
-88 16 -150 -3 -18 -307 -327 -322 -327 -5 0 -53 43 -107 96 -85 84 -101 96
-123 90 -20 -5 -26 -13 -26 -34 0 -21 25 -52 124 -149 69 -68 129 -123 134
-123 16 0 383 380 377 391 -4 5 -2 9 4 9 15 0 31 67 31 128 0 170 -211 286
-369 203 l-43 -22 -63 26 c-70 28 -142 32 -190 11z" />
        <path d="M1238 1106 c-41 -31 -11 -89 42 -84 29 3 36 8 44 37 8 28 7 36 -9 47
-24 17 -55 17 -77 0z" />
        <path d="M1601 954 c-72 -60 -14 -173 75 -144 41 14 54 35 54 89 0 31 -5 44
-22 55 -45 28 -74 28 -107 0z" />
    </g>
</svg>
