<?xml version="1.0" standalone="no"?>
<!DOCTYPE svg PUBLIC "-//W3C//DTD SVG 20010904//EN"
 "http://www.w3.org/TR/2001/REC-SVG-20010904/DTD/svg10.dtd">
<svg version="1.0" xmlns="http://www.w3.org/2000/svg"
 width="512.000000pt" height="512.000000pt" viewBox="0 0 512.000000 512.000000"
 preserveAspectRatio="xMidYMid meet">

<g transform="translate(0.000000,512.000000) scale(0.100000,-0.100000)"
fill="#000000" stroke="none">
<path d="M2380 4834 c-752 -69 -1401 -476 -1783 -1118 -214 -361 -334 -823
-313 -1210 18 -352 105 -694 250 -991 327 -667 948 -1099 1736 -1206 138 -19
468 -16 615 5 533 76 992 309 1341 679 500 529 721 1360 554 2083 -61 264
-175 523 -333 759 -351 525 -914 880 -1552 980 -97 15 -424 27 -515 19z m500
-269 c432 -68 809 -250 1103 -534 365 -352 579 -845 613 -1416 12 -209 -29
-485 -107 -712 -120 -349 -336 -667 -609 -895 -325 -273 -711 -436 -1124 -477
-840 -83 -1657 374 -2026 1134 -146 300 -223 658 -206 950 54 901 554 1591
1347 1859 144 48 334 91 476 106 123 12 408 5 533 -15z"/>
<path d="M2453 3866 c-179 -44 -316 -188 -354 -373 -11 -55 -9 -111 25 -505
43 -519 49 -566 81 -635 69 -153 249 -244 421 -213 153 26 267 125 310 266 7
25 32 263 55 527 47 540 47 561 -12 685 -36 75 -121 165 -195 204 -98 53 -224
70 -331 44z m217 -259 c54 -28 106 -100 115 -160 3 -23 -12 -250 -34 -505 -45
-520 -44 -516 -125 -553 -52 -23 -80 -23 -132 0 -81 37 -80 31 -126 570 -41
473 -41 480 -23 526 50 132 197 187 325 122z"/>
<path d="M2458 1985 c-108 -29 -209 -120 -249 -223 -31 -80 -31 -205 0 -284
27 -70 101 -154 168 -190 72 -40 167 -54 249 -39 91 16 152 50 212 115 69 76
94 145 95 256 0 110 -26 179 -95 256 -98 106 -241 148 -380 109z m181 -252
c85 -63 75 -186 -20 -236 -92 -49 -208 33 -195 137 12 104 133 159 215 99z"/>
</g>
</svg>
