<?xml version="1.0" standalone="no"?>
<!DOCTYPE svg PUBLIC "-//W3C//DTD SVG 20010904//EN"
 "http://www.w3.org/TR/2001/REC-SVG-20010904/DTD/svg10.dtd">
<svg version="1.0" xmlns="http://www.w3.org/2000/svg"
 width="512.000000pt" height="512.000000pt" viewBox="0 0 512.000000 512.000000"
 preserveAspectRatio="xMidYMid meet">

<g transform="translate(0.000000,512.000000) scale(0.100000,-0.100000)"
fill="#000000" stroke="none">
<path d="M2050 4953 c-511 -50 -929 -241 -1279 -586 -347 -341 -552 -773 -600
-1261 -53 -538 120 -1092 472 -1512 330 -394 805 -649 1327 -714 190 -23 486
-8 680 35 217 48 437 136 614 244 l63 39 87 -133 c186 -285 425 -604 546 -726
185 -186 438 -228 678 -114 103 49 208 154 257 257 39 81 65 186 65 263 0 129
-60 285 -146 383 -88 100 -447 374 -755 576 l-136 89 59 101 c87 152 162 336
207 511 39 152 53 260 58 446 8 278 -20 471 -103 719 -259 766 -940 1303
-1750 1380 -102 9 -265 11 -344 3z m341 -164 c743 -75 1369 -573 1605 -1276
62 -187 85 -324 91 -543 4 -149 1 -222 -11 -310 -119 -849 -762 -1492 -1616
-1616 -169 -24 -461 -15 -625 20 -367 78 -672 238 -933 490 -563 543 -732
1349 -437 2079 177 438 548 818 982 1006 297 129 631 182 944 150z m1532
-3188 c294 -187 663 -465 766 -576 226 -245 82 -647 -251 -698 -145 -22 -274
28 -389 151 -96 103 -307 385 -464 621 l-129 193 35 26 c85 66 278 260 316
318 8 13 17 24 20 24 2 0 45 -26 96 -59z"/>
<path d="M1543 3746 c-152 -37 -299 -156 -366 -296 -124 -260 -76 -550 141
-854 73 -102 278 -315 396 -410 179 -146 431 -296 495 -296 58 0 280 129 456
267 320 250 551 555 617 816 29 116 23 301 -15 407 -89 249 -303 391 -572 377
-162 -8 -284 -63 -419 -189 l-72 -66 -27 33 c-65 81 -234 183 -350 210 -75 18
-212 18 -284 1z m297 -171 c104 -41 189 -111 293 -238 29 -36 45 -47 67 -47
43 0 58 9 89 54 43 62 119 135 185 178 240 155 540 71 637 -179 31 -79 38
-243 15 -334 -44 -173 -178 -373 -382 -569 -149 -143 -331 -279 -476 -355
l-57 -30 -58 29 c-32 15 -101 56 -153 91 -367 245 -661 595 -715 850 -56 265
62 499 284 562 62 18 213 11 271 -12z"/>
</g>
</svg>
