<?xml version="1.0" standalone="no"?>
<!DOCTYPE svg PUBLIC "-//W3C//DTD SVG 20010904//EN"
 "http://www.w3.org/TR/2001/REC-SVG-20010904/DTD/svg10.dtd">
<svg version="1.0" xmlns="http://www.w3.org/2000/svg"
    width="512.000000pt" height="512.000000pt" viewBox="0 0 512.000000 512.000000"
 preserveAspectRatio="xMidYMid meet">

<g transform="translate(0.000000,512.000000) scale(0.100000,-0.100000)"
fill="#000000" stroke="none">
<path d="M2210 5107 c-174 -50 -275 -176 -295 -368 l-6 -55 -47 23 c-193 95
-432 13 -528 -182 l-29 -60 -3 -282 c-2 -156 -6 -283 -9 -283 -3 0 -31 12 -62
28 -50 24 -67 27 -161 27 -99 0 -110 -2 -171 -32 -80 -39 -150 -111 -187 -191
l-27 -57 0 -1115 0 -1115 23 -102 c51 -232 151 -463 279 -643 83 -116 259
-294 371 -375 391 -282 864 -385 1332 -289 165 34 368 113 513 200 333 200
606 539 726 899 62 189 511 1890 511 1938 0 91 -58 164 -153 192 -67 20 -215
20 -290 1 -195 -52 -344 -196 -406 -390 -16 -50 -57 -199 -92 -331 -34 -132
-64 -242 -65 -244 -2 -2 -28 0 -58 3 l-56 7 -2 1067 -3 1067 -32 67 c-42 90
-100 150 -184 192 -114 57 -238 57 -350 1 l-46 -24 -6 67 c-9 109 -40 177
-116 253 -49 49 -81 72 -126 89 -72 27 -182 35 -245 17z m195 -176 c45 -20 91
-69 112 -118 11 -26 13 -210 13 -997 0 -643 3 -974 10 -992 23 -58 92 -73 135
-29 l25 24 0 793 c0 746 2 795 19 833 75 164 299 183 398 33 l28 -42 3 -1061
2 -1062 -77 -13 c-384 -61 -703 -319 -840 -679 -48 -127 -43 -178 18 -200 24
-8 38 -8 57 2 30 14 41 32 82 142 42 113 94 196 179 287 124 133 277 225 446
269 99 25 273 30 396 10 94 -15 133 -11 148 17 5 10 51 171 101 357 50 186 99
358 110 382 31 71 120 155 203 194 63 29 82 33 157 34 99 0 137 -8 144 -33 7
-22 -483 -1854 -524 -1958 -79 -198 -184 -358 -340 -514 -129 -129 -248 -214
-405 -290 -218 -105 -357 -139 -600 -147 -189 -6 -293 4 -438 42 -563 147
-992 611 -1104 1195 -17 88 -18 171 -18 1160 0 1021 1 1066 19 1100 36 68 89
109 164 125 90 19 189 -30 238 -117 l29 -53 3 -512 3 -513 26 -20 c36 -28 75
-25 107 6 l26 27 0 886 c0 599 4 899 11 925 6 21 29 58 51 82 101 110 273 97
355 -28 l28 -42 5 -807 5 -807 24 -26 c33 -35 83 -35 116 -1 l25 24 0 979 0
978 25 51 c25 50 71 94 117 113 40 16 140 11 183 -9z"/>
</g>
</svg>
